<svg width="1440" height="1024" viewBox="0 0 1440 1024" fill="none" xmlns="http://www.w3.org/2000/svg">
<g clip-path="url(#clip0_5_423)">
<rect width="1440" height="1024" fill="#E2F9B8"/>
<path opacity="0.5" d="M1305.2 346.068L1439.41 349.198L1374.44 246.023L1305.2 346.068Z" stroke="#B8BA77" stroke-width="4"/>
<path opacity="0.5" d="M1279.91 218.861L1274.42 286.854L1338.79 252.94L1279.91 218.861Z" fill="#B8BA77"/>
<path opacity="0.5" d="M1440.72 49.1657L1408.98 72.5375L1446.71 88.2699L1440.72 49.1657Z" fill="#B8BA77"/>
<path opacity="0.5" d="M1425.42 121.398L1345.45 121.835L1385.9 191.18L1425.42 121.398Z" stroke="#B8BA77" stroke-width="4"/>
<path opacity="0.5" d="M1273.42 313.23L1316.08 275.688L1261.86 258.784L1273.42 313.23Z" stroke="#B8BA77" stroke-width="2"/>
<path opacity="0.5" d="M1312.16 -14.8384L1429.79 -0.150676L1345.08 89.3748L1312.16 -14.8384Z" fill="#B8BA77" stroke="#B8BA77" stroke-width="4"/>
<path opacity="0.5" d="M1358.22 161.302L1466.49 230.771L1474.44 286.135L1387.65 366.301L1358.22 161.302Z" fill="#B8BA77" stroke="#B8BA77" stroke-width="4"/>
<path opacity="0.5" d="M1356.15 112.999L1398.8 75.4577L1344.58 58.5539L1356.15 112.999Z" stroke="#B8BA77" stroke-width="2"/>
<path d="M972.5 369.5C972.9 369.5 972.333 369.5 972 369.5" stroke="black"/>
<path d="M973 369.5H972.5" stroke="black"/>
<path opacity="0.5" d="M1284.21 621.737L1392.3 664.675L1369.51 575.81L1284.21 621.737Z" stroke="#B8BA77" stroke-width="4"/>
<path opacity="0.5" d="M1300.63 528.853L1276.42 572.716L1338.55 569.593L1300.63 528.853Z" fill="#B8BA77"/>
<path opacity="0.5" d="M1446.3 507.974L1382.63 484.45L1395.06 541.933L1446.3 507.974Z" stroke="#B8BA77" stroke-width="4"/>
<path opacity="0.5" d="M1268.13 589.772L1312.92 577.81L1274.45 550.448L1268.13 589.772Z" stroke="#B8BA77" stroke-width="2"/>
<path opacity="0.5" d="M1394.71 382.166L1485.98 427.799L1391.17 461.972L1394.71 382.166Z" fill="#B8BA77" stroke="#B8BA77" stroke-width="4"/>
<path opacity="0.5" d="M1380.95 514.139L1448.7 593.608L1439.07 633.103L1345.3 660.378L1380.95 514.139Z" fill="#B8BA77" stroke="#B8BA77" stroke-width="4"/>
<path opacity="0.5" d="M1393.48 480.857L1438.28 468.895L1399.8 441.533L1393.48 480.857Z" stroke="#B8BA77" stroke-width="2"/>
<path opacity="0.5" d="M1336.66 1059.63L1467.41 1030.86L1365.11 924.107L1336.66 1059.63Z" stroke="#B8BA77" stroke-width="4"/>
<path opacity="0.5" d="M1263.45 914.743L1284.24 996.784L1333.35 940.945L1263.45 914.743Z" fill="#B8BA77"/>
<path opacity="0.5" d="M1353.55 674.38L1331.88 709.806L1374.33 719.35L1353.55 674.38Z" fill="#B8BA77"/>
<path opacity="0.5" d="M1366.73 763.445L1288.96 783.512L1355.25 856.747L1366.73 763.445Z" stroke="#B8BA77" stroke-width="4"/>
<path opacity="0.5" d="M1293.49 1028.51L1320.41 973.304L1261.26 966.32L1293.49 1028.51Z" stroke="#B8BA77" stroke-width="2"/>
<path opacity="0.5" d="M1204.91 629.518L1324.09 618.481L1276.67 745.259L1204.91 629.518Z" fill="#B8BA77" stroke="#B8BA77" stroke-width="4"/>
<path opacity="0.5" d="M1316.95 827.461L1448.11 883.72L1477.02 947.518L1424.01 1063.69L1316.95 827.461Z" fill="#B8BA77" stroke="#B8BA77" stroke-width="4"/>
<path opacity="0.5" d="M1296.52 770.799L1323.44 715.592L1264.28 708.608L1296.52 770.799Z" stroke="#B8BA77" stroke-width="2"/>
<path opacity="0.5" d="M1437.64 1000.18L1525.19 982.703L1453.57 903.673L1437.64 1000.18Z" stroke="#B8BA77" stroke-width="4"/>
<path opacity="0.5" d="M1384.73 894.504L1400.74 953.846L1432.55 914.983L1384.73 894.504Z" fill="#B8BA77"/>
<path opacity="0.5" d="M1439.74 724.288L1425.97 749.173L1454.86 757.043L1439.74 724.288Z" fill="#B8BA77"/>
<path opacity="0.5" d="M1450.14 789.315L1399.81 801.43L1444.82 853.821L1450.14 789.315Z" stroke="#B8BA77" stroke-width="4"/>
<path opacity="0.5" d="M1407.76 976.093L1424.18 938.118L1385.08 931.841L1407.76 976.093Z" stroke="#B8BA77" stroke-width="2"/>
<path opacity="0.5" d="M1338.34 688.525L1418.51 683.486L1389.57 773.268L1338.34 688.525Z" fill="#B8BA77" stroke="#B8BA77" stroke-width="4"/>
<path opacity="0.5" d="M1418.74 833.196L1508.61 876.71L1529.66 923.165L1496.69 1005.2L1418.74 833.196Z" fill="#B8BA77" stroke="#B8BA77" stroke-width="4"/>
<path opacity="0.5" d="M1403.58 791.333L1420 753.358L1380.9 747.082L1403.58 791.333Z" stroke="#B8BA77" stroke-width="2"/>
<path opacity="0.5" d="M169 322.5L37 344.5L86.5 234L169 322.5Z" stroke="#B8BA77" stroke-width="4"/>
<path opacity="0.5" d="M175.933 193.991L190.982 259.999L122.656 235.766L175.933 193.991Z" fill="#B8BA77"/>
<path opacity="0.5" d="M-6.7914 49.9932L27.841 68.473L-7.16137 89.2458L-6.7914 49.9932Z" fill="#B8BA77"/>
<path opacity="0.5" d="M18.5601 118.791L97.4933 107.949L67.4163 181.728L18.5601 118.791Z" stroke="#B8BA77" stroke-width="4"/>
<path opacity="0.5" d="M195.701 285.756L148.31 254.907L199.398 230.667L195.701 285.756Z" stroke="#B8BA77" stroke-width="2"/>
<path opacity="0.5" d="M111 -31L-3 0.0144939L93.2798 76L111 -31Z" fill="#B8BA77" stroke="#B8BA77" stroke-width="4"/>
<path opacity="0.5" d="M90.5 148.5L-6.5 232V287.5L90.5 354V148.5Z" fill="#B8BA77" stroke="#B8BA77" stroke-width="4"/>
<path opacity="0.5" d="M85.7012 100.756L38.3099 69.9073L89.3978 45.6673L85.7012 100.756Z" stroke="#B8BA77" stroke-width="2"/>
<path opacity="0.5" d="M-56.6291 138.194L-65.0133 4.63603L39.8446 65.1779L-56.6291 138.194Z" stroke="#B8BA77" stroke-width="4"/>
<path opacity="0.5" d="M70.4971 158.234L3.2957 166.453L34.3897 100.964L70.4971 158.234Z" fill="#B8BA77"/>
<path opacity="0.5" d="M232.428 -8.80479L210.503 23.7559L193.419 -13.1874L232.428 -8.80479Z" fill="#B8BA77"/>
<path opacity="0.5" d="M161.398 9.37736L164.11 89.0055L93.7938 51.5404L161.398 9.37736Z" stroke="#B8BA77" stroke-width="4"/>
<path opacity="0.5" d="M-22.8083 168.513L12.7253 124.525L31.6132 177.825L-22.8083 168.513Z" stroke="#B8BA77" stroke-width="2"/>
<path opacity="0.5" d="M300.949 116.653L281.757 0.0784588L196.323 88.0819L300.949 116.653Z" fill="#B8BA77" stroke="#B8BA77" stroke-width="4"/>
<path opacity="0.5" d="M124.487 77.9015L51.3458 -27.1299L-3.86314 -32.8062L-79.9352 56.8838L124.487 77.9015Z" fill="#B8BA77" stroke="#B8BA77" stroke-width="4"/>
<path opacity="0.5" d="M172.472 78.011L208.006 34.0232L226.893 87.3225L172.472 78.011Z" stroke="#B8BA77" stroke-width="2"/>
<path opacity="0.5" d="M181 1046.5L49 1068.5L98.5 958L181 1046.5Z" stroke="#B8BA77" stroke-width="4"/>
<path opacity="0.5" d="M187.933 917.991L202.982 983.999L134.656 959.766L187.933 917.991Z" fill="#B8BA77"/>
<path opacity="0.5" d="M5.2086 773.993L39.841 792.473L4.83863 813.246L5.2086 773.993Z" fill="#B8BA77"/>
<path opacity="0.5" d="M30.5601 842.791L109.493 831.949L79.4163 905.728L30.5601 842.791Z" stroke="#B8BA77" stroke-width="4"/>
<path opacity="0.5" d="M207.701 1009.76L160.31 978.907L211.398 954.667L207.701 1009.76Z" stroke="#B8BA77" stroke-width="2"/>
<path opacity="0.5" d="M123 693L9 724.014L105.28 800L123 693Z" fill="#B8BA77" stroke="#B8BA77" stroke-width="4"/>
<path opacity="0.5" d="M102.5 872.5L5.5 956V1011.5L102.5 1078V872.5Z" fill="#B8BA77" stroke="#B8BA77" stroke-width="4"/>
<path opacity="0.5" d="M97.7012 824.756L50.3099 793.907L101.398 769.667L97.7012 824.756Z" stroke="#B8BA77" stroke-width="2"/>
<path opacity="0.5" d="M35.6561 918.147L-25.9596 946.202L-16.0077 874.393L35.6561 918.147Z" fill="#B8BA77"/>
<path opacity="0.5" d="M139.834 710.131L128.72 747.78L101.313 717.687L139.834 710.131Z" fill="#B8BA77"/>
<path opacity="0.5" d="M77.5639 748.84L104.106 823.963L25.7761 809.388L77.5639 748.84Z" stroke="#B8BA77" stroke-width="4"/>
<path opacity="0.5" d="M-50.2346 956.02L-29.5804 903.38L4.467 948.528L-50.2346 956.02Z" stroke="#B8BA77" stroke-width="2"/>
<path opacity="0.5" d="M242.923 809.163L189.55 703.763L134.548 813.392L242.923 809.163Z" fill="#B8BA77" stroke="#B8BA77" stroke-width="4"/>
<path opacity="0.5" d="M62.9779 825.294L-38.3728 747.132L-92.7318 758.328L-138.298 866.748L62.9779 825.294Z" fill="#B8BA77" stroke="#B8BA77" stroke-width="4"/>
<path opacity="0.5" d="M108.773 810.963L129.427 758.323L163.474 803.471L108.773 810.963Z" stroke="#B8BA77" stroke-width="2"/>
<path opacity="0.5" d="M122.615 673.079L-7.41389 641.451L81.5186 559.283L122.615 673.079Z" stroke="#B8BA77" stroke-width="4"/>
<path opacity="0.5" d="M179.479 557.627L167.385 624.24L114.074 575.112L179.479 557.627Z" fill="#B8BA77"/>
<path opacity="0.5" d="M68.0203 353.42L92.6077 384.02L52.2587 389.371L68.0203 353.42Z" fill="#B8BA77"/>
<path opacity="0.5" d="M64.3043 426.646L141.15 447.687L84.5056 503.717L64.3043 426.646Z" stroke="#B8BA77" stroke-width="4"/>
<path opacity="0.5" d="M161.606 649.78L130.145 602.793L186.648 600.573L161.606 649.78Z" stroke="#B8BA77" stroke-width="2"/>
<path opacity="0.5" d="M208.161 325.217L91.1423 308.95L149.828 416.651L208.161 325.217Z" fill="#B8BA77" stroke="#B8BA77" stroke-width="4"/>
<path opacity="0.5" d="M118.788 482.229L-3.21764 520.907L-25.0222 571.944L38.052 671.206L118.788 482.229Z" fill="#B8BA77" stroke="#B8BA77" stroke-width="4"/>
<path opacity="0.5" d="M133.133 436.439L101.671 389.452L158.175 387.232L133.133 436.439Z" stroke="#B8BA77" stroke-width="2"/>
</g>
<defs>
<clipPath id="clip0_5_423">
<rect width="1440" height="1024" fill="white"/>
</clipPath>
</defs>
</svg>
